<?xml version="1.0" encoding="utf-8"?>
<svg version="1.1" xmlns="http://www.w3.org/2000/svg" width="437" height="428">
  <path d="M0 0 C144.21 0 288.42 0 437 0 C437 141.24 437 282.48 437 428 C292.79 428 148.58 428 0 428 C0 286.76 0 145.52 0 0 Z " transform="translate(0,0)" style="fill-opacity: 0; fill: rgb(255, 255, 255);"/>
  <path d="M0 0 C0.80953125 0.515625 1.6190625 1.03125 2.453125 1.5625 C3.57203125 2.160625 4.6909375 2.75875 5.84375 3.375 C7.13228327 4.10049368 8.41862173 4.82989477 9.703125 5.5625 C10.40711426 5.96130371 11.11110352 6.36010742 11.83642578 6.77099609 C17.38789748 9.92761877 22.89530367 13.15672543 28.39160156 16.40820312 C36.17320066 21.00531098 44.0103788 25.50536957 51.84350586 30.01391602 C58.84306166 34.04626324 65.82597139 38.10416385 72.76367188 42.2421875 C76.37325443 44.38379527 80.02379992 46.42739528 83.71484375 48.42578125 C89.49150285 51.55989975 95.16311973 54.85683032 100.828125 58.1875 C108.55241182 62.71299094 116.29498141 67.20151339 124.078125 71.625 C132.40966208 76.36277501 140.67438436 81.2068023 148.90869141 86.11157227 C154.37180896 89.35989852 159.87807135 92.51009889 165.453125 95.5625 C161.75218346 106.42526353 151.71081459 115.87490768 143.86523438 124.08300781 C142.9287794 125.0641484 141.99770269 126.05045247 141.07226562 127.04199219 C128.40819031 140.59023073 113.44758458 151.27474397 97.453125 160.5625 C96.82696289 160.92714355 96.20080078 161.29178711 95.55566406 161.66748047 C87.35178847 166.38438864 79.03063063 170.09041851 70.109375 173.23828125 C66.48380111 174.49701658 66.48380111 174.49701658 63.203125 176.0390625 C58.30196238 178.17403864 53.12860643 179.34423213 47.953125 180.625 C46.96570313 180.88087891 45.97828125 181.13675781 44.9609375 181.40039062 C30.26279096 185.07492726 15.9529964 185.93557517 0.87670898 185.93310547 C-2.08083647 185.937458 -5.03685928 185.97385217 -7.99414062 186.01171875 C-28.81205975 186.13335474 -50.36279102 182.95691017 -69.546875 174.5625 C-71.24987419 173.94345727 -72.95801311 173.33830056 -74.671875 172.75 C-81.15481391 170.43273254 -87.3374127 167.52408774 -93.546875 164.5625 C-93.546875 163.9025 -93.546875 163.2425 -93.546875 162.5625 C-92.47953125 161.97984375 -91.4121875 161.3971875 -90.3125 160.796875 C-88.80708066 159.96913364 -87.30189146 159.14097366 -85.796875 158.3125 C-84.99572266 157.87446045 -84.19457031 157.4364209 -83.36914062 156.98510742 C-78.90270196 154.51742597 -74.53939796 151.95668886 -70.25 149.19140625 C-69.38084961 148.63936523 -68.51169922 148.08732422 -67.61621094 147.51855469 C-65.93888485 146.44560151 -64.27458085 145.35193349 -62.62597656 144.23535156 C-57.50251864 140.98576075 -54.02048331 139.96300865 -47.99267578 140.96044922 C-44.88469766 141.72549953 -41.91419478 142.7377746 -38.90527344 143.82275391 C-34.43170241 145.22595476 -29.81469281 145.70131018 -25.171875 146.25 C-23.59575439 146.43997559 -23.59575439 146.43997559 -21.98779297 146.63378906 C-6.46366656 148.37934169 8.90488847 147.60276433 24.453125 146.5625 C24.453125 145.9025 24.453125 145.2425 24.453125 144.5625 C23.18082031 144.18351562 23.18082031 144.18351562 21.8828125 143.796875 C18.20963459 142.47486564 14.94364034 140.75769008 11.578125 138.8125 C10.90031982 138.42618408 10.22251465 138.03986816 9.52416992 137.6418457 C2.20977965 133.4576877 -5.0589491 129.19331693 -12.33178711 124.9375 C-19.02663824 121.02195151 -25.74398785 117.14907642 -32.484375 113.3125 C-39.54074556 109.29550165 -46.56053734 105.2230455 -53.55029297 101.09130859 C-60.17630621 97.17848521 -66.85400486 93.35972268 -73.546875 89.5625 C-70.27762119 85.87941659 -66.52070132 83.6762105 -62.234375 81.375 C-57.87481036 79.00080059 -53.55869033 76.61039113 -49.37109375 73.94140625 C-48.70698486 73.52205811 -48.04287598 73.10270996 -47.35864258 72.6706543 C-46.09586086 71.8666318 -44.84123718 71.04960567 -43.59643555 70.21801758 C-40.76026091 68.42869179 -39.04523421 67.52097007 -35.65820312 67.80322266 C-32.53280534 68.56593351 -30.2469033 69.56733281 -27.4609375 71.15625 C-26.50606445 71.69765625 -25.55119141 72.2390625 -24.56738281 72.796875 C-19.33417092 75.85592676 -14.12109293 78.94601975 -8.921875 82.0625 C1.08442801 88.03703328 11.18061839 93.81852577 21.37182617 99.47363281 C28.27635191 103.31502596 35.10263188 107.26903312 41.890625 111.3125 C48.74396614 115.39014838 55.6202479 119.41534976 62.578125 123.3125 C63.31861084 123.73112305 64.05909668 124.14974609 64.82202148 124.58105469 C69.42054005 127.17289504 69.42054005 127.17289504 74.453125 128.5625 C76.77910832 127.53738879 78.79373046 126.49256018 80.953125 125.1875 C81.56534912 124.8275293 82.17757324 124.46755859 82.80834961 124.09667969 C89.02781225 120.36098695 94.76937796 116.06883893 100.453125 111.5625 C101.85884766 110.50289062 101.85884766 110.50289062 103.29296875 109.421875 C104.00582031 108.80828125 104.71867187 108.1946875 105.453125 107.5625 C105.453125 106.9025 105.453125 106.2425 105.453125 105.5625 C104.84766846 105.22742432 104.24221191 104.89234863 103.6184082 104.54711914 C90.42190068 97.23106114 77.32252178 89.77778123 64.32382202 82.11672974 C54.52613142 76.34309941 44.67686952 70.66747593 34.79098511 65.04632568 C28.0474478 61.21070253 21.33270297 57.34217604 14.703125 53.3125 C10.04365715 50.48218446 5.38793235 47.87883814 0.453125 45.5625 C0.453125 44.9025 0.453125 44.2425 0.453125 43.5625 C-5.63176132 45.99645453 -11.23337639 49.06895109 -16.921875 52.3125 C-18.42439819 53.16533569 -18.42439819 53.16533569 -19.95727539 54.03540039 C-28.4211878 58.86563936 -36.78092857 63.86134906 -45.12524414 68.89453125 C-60.44980525 78.13561595 -75.8746006 87.17305634 -91.59399414 95.72705078 C-97.18471976 98.77983278 -102.66450224 101.97708742 -108.10546875 105.28808594 C-113.21008296 108.38691967 -118.38795344 111.34025389 -123.61132812 114.23413086 C-126.95604848 116.08943113 -130.26383704 117.98125788 -133.52734375 119.9765625 C-134.47951782 120.5497522 -134.47951782 120.5497522 -135.45092773 121.13452148 C-137.19259002 122.18698214 -138.92475154 123.25511912 -140.65625 124.32421875 C-143.546875 125.5625 -143.546875 125.5625 -145.51782227 124.8347168 C-151.87597318 120.84815388 -156.45531007 114.38833103 -160.859375 108.4375 C-161.38337891 107.74785156 -161.90738281 107.05820312 -162.44726562 106.34765625 C-162.95064453 105.67347656 -163.45402344 104.99929688 -163.97265625 104.3046875 C-164.42036377 103.7051123 -164.86807129 103.10553711 -165.3293457 102.48779297 C-166.73081319 100.27163643 -167.6380591 98.01685823 -168.546875 95.5625 C-156.27369005 88.37710226 -143.98738426 81.21783173 -131.63061523 74.17700195 C-116.19197331 65.37667154 -100.81876369 56.46185194 -85.44555664 47.54785156 C-79.76399654 44.25747133 -74.06379723 41.00054679 -68.359375 37.75 C-59.75861178 32.84896184 -51.20735931 27.86673064 -42.6652832 22.86425781 C-34.56014881 18.12855575 -26.40083225 13.49370456 -18.20751953 8.91235352 C-17.31919434 8.41405029 -16.43086914 7.91574707 -15.515625 7.40234375 C-14.24912109 6.69634033 -14.24912109 6.69634033 -12.95703125 5.97607422 C-10.62118651 4.60608424 -8.42898198 3.10630404 -6.203125 1.56640625 C-2.90792389 -0.49952067 -2.90792389 -0.49952067 0 0 Z " transform="translate(219.546875,231.4375)" style="paint-order: fill;"/>
  <path d="M0 0 C0 64.02 0 128.04 0 194 C-5.94 197.3 -11.88 200.6 -18 204 C-21.84331272 206.21483214 -25.67781263 208.43734964 -29.5 210.6875 C-31.55048602 211.88852502 -33.60127838 213.08902714 -35.65234375 214.2890625 C-36.69245605 214.89782227 -37.73256836 215.50658203 -38.80419922 216.13378906 C-53.43596473 224.67811416 -68.13269393 233.10736665 -82.90332031 241.40917969 C-89.64668897 245.2078251 -96.32940776 249.09992472 -102.95141602 253.10668945 C-107.78615434 256 -107.78615434 256 -110 256 C-110.33 202.87 -110.66 149.74 -111 95 C-117.18387626 101.87097363 -122.08117531 107.67897284 -126.5625 115.5 C-127.11478271 116.45197266 -127.66706543 117.40394531 -128.23608398 118.38476562 C-149.29452007 155.29936372 -156.29586712 199.67872139 -145 241 C-144.81953125 241.66708984 -144.6390625 242.33417969 -144.453125 243.02148438 C-142.11347323 251.51684063 -139.52191019 259.71560399 -135.91796875 267.77734375 C-135 270 -135 270 -135 272 C-136.13695312 272.6290625 -137.27390625 273.258125 -138.4453125 273.90625 C-148.00404268 279.20188209 -157.52900601 284.54884912 -167 290 C-170.60305566 287.59796289 -170.93718001 286.2215626 -172.3984375 282.21875 C-172.82866211 281.04699219 -173.25888672 279.87523437 -173.70214844 278.66796875 C-175.72198237 272.95954418 -177.70816062 267.24390834 -179.625 261.5 C-180.0065625 260.37980469 -180.388125 259.25960938 -180.78125 258.10546875 C-196.81091304 210.18230372 -190.37929112 157.13832381 -169 112 C-168.68482422 111.32710938 -168.36964844 110.65421875 -168.04492188 109.9609375 C-149.90739517 71.8838836 -113.73804151 34.49110093 -74 19 C-73.34 19 -72.68 19 -72 19 C-72 75.76 -72 132.52 -72 191 C-71.34 191 -70.68 191 -70 191 C-70 190.34 -70 189.68 -70 189 C-68.63681641 188.29037109 -68.63681641 188.29037109 -67.24609375 187.56640625 C-59.59022404 183.54792211 -52.09430075 179.36179434 -44.74975586 174.79516602 C-40.20614789 172 -40.20614789 172 -38 172 C-38 117.22 -38 62.44 -38 6 C-21.03202479 1.47520661 -21.03202479 1.47520661 -15.0625 0.75 C-13.89847656 0.60046875 -12.73445312 0.4509375 -11.53515625 0.296875 C-7.70232233 -0.02499835 -3.8463253 0 0 0 Z " transform="translate(206,16)" style="paint-order: fill;"/>
  <path d="M0 0 C2.54997862 0.14344904 5.09958748 0.29120409 7.64916992 0.44140625 C8.72330769 0.50116638 8.72330769 0.50116638 9.8191452 0.56213379 C15.44426531 0.89859258 20.82305224 1.71275481 26.3125 3 C27.52583008 3.26683594 27.52583008 3.26683594 28.76367188 3.5390625 C31.8968001 4.2370495 34.95320417 4.98440139 38 6 C38 32.73 38 59.46 38 87 C40.97 87.99 40.97 87.99 44 89 C45.66763046 89.85967635 47.30906879 90.77188076 48.921875 91.73046875 C49.85136963 92.27840088 50.78086426 92.82633301 51.73852539 93.39086914 C52.73231201 93.98375732 53.72609863 94.57664551 54.75 95.1875 C56.90978837 96.46156133 59.0699578 97.73497688 61.23046875 99.0078125 C62.34599121 99.6668457 63.46151367 100.32587891 64.61083984 101.00488281 C70.07648775 104.22237847 75.56800885 107.39458309 81.0625 110.5625 C82.68007202 111.49606323 82.68007202 111.49606323 84.33032227 112.44848633 C92.54437378 117.18103659 100.79708127 121.84274626 109.05932617 126.49047852 C115.66034911 130.21441564 122.18121653 134.0486669 128.6484375 138 C132.71548755 140.4269576 136.8488953 142.72068738 141 145 C131.67247225 122.80824233 120.10824536 103.05384896 103.1875 85.8125 C102.67985107 85.29075195 102.17220215 84.76900391 101.64916992 84.23144531 C101.11912354 83.70776367 100.58907715 83.18408203 100.04296875 82.64453125 C99.17381836 81.78396118 99.17381836 81.78396118 98.28710938 80.90600586 C96.36121936 79.30102899 94.61899492 78.16092068 92.46289062 76.92407227 C82.97194598 71.1548404 82.97194598 71.1548404 81.26852417 65.6257019 C80.2522566 58.86686032 80.72266999 52.1060211 81.125 45.3125 C81.19532662 43.24304997 81.25918732 41.17336955 81.31640625 39.10351562 C81.46971663 34.06326307 81.71058698 29.03419637 82 24 C92.52275418 26.39305993 101.68166473 34.48605124 110 41 C110.83144531 41.63679688 111.66289062 42.27359375 112.51953125 42.9296875 C130.87895649 57.22571814 145.36027257 73.51842693 158 93 C158.40766602 93.61939453 158.81533203 94.23878906 159.23535156 94.87695312 C178.83946383 124.75478651 189.21475735 162.47904069 189.25 198 C189.25100708 198.70464386 189.25201416 199.40928772 189.25305176 200.13528442 C189.22585068 228.44640676 185.7780456 267.0680231 167 290 C156.00428071 284.09056874 145.17590046 277.97139009 134.5 271.5 C126.18922567 266.46289854 117.8138344 261.62488344 109.26586914 257.00317383 C102.40890705 253.27660937 95.71733921 249.30390925 89.05932617 245.23364258 C84.0717597 242.19478018 79.01002768 239.34947191 73.87182617 236.57348633 C68.83648147 233.81459858 63.89077343 230.9028781 58.9375 228 C57.92623047 227.40960938 56.91496094 226.81921875 55.87304688 226.2109375 C50.31130733 222.95912842 44.77134395 219.67517384 39.26220703 216.33496094 C36.85101767 214.91208338 34.40454533 213.57334893 31.9375 212.25 C26.29646835 209.20881793 20.78497181 205.96451455 15.27709961 202.69042969 C10.22932883 199.69624213 5.13620516 196.85344731 0 194 C0 179.48 0 164.96 0 150 C3.34438998 151.33775599 6.11194042 152.53077 9.16796875 154.29296875 C9.96565674 154.75074707 10.76334473 155.20852539 11.58520508 155.68017578 C12.4439624 156.17759277 13.30271973 156.67500977 14.1875 157.1875 C15.55007935 157.97229736 15.55007935 157.97229736 16.94018555 158.77294922 C18.91366164 159.91001487 20.88636857 161.04841626 22.85839844 162.18798828 C26.10180785 164.05872069 29.35109125 165.9189118 32.6015625 167.77734375 C42.73378755 173.58141151 52.80584106 179.41836106 62.64306641 185.7109375 C67.80827186 188.97520398 73.14700556 191.63699536 78.6484375 194.30078125 C83.10331737 196.55937419 87.28602677 199.16703759 91.51171875 201.82421875 C95.50515939 204.33302273 99.56102502 206.73264782 103.625 209.125 C104.29313721 209.52050049 104.96127441 209.91600098 105.6496582 210.32348633 C109.47216462 212.57084769 113.3303859 214.7337133 117.23046875 216.84375 C123.46024206 220.22325081 129.5748817 223.78903042 135.6875 227.375 C136.78255859 228.01566406 137.87761719 228.65632812 139.00585938 229.31640625 C141.67141945 230.87616629 144.33611385 232.43738343 147 234 C149.3245482 220.86906999 150.40721766 208.33260771 150 195 C149.38181396 194.65332275 148.76362793 194.30664551 148.12670898 193.94946289 C127.55433865 182.40029647 127.55433865 182.40029647 117.92553711 176.52563477 C110.79375212 172.21237627 103.48186486 168.21584578 96.19995117 164.16357422 C89.78628703 160.585818 83.44035341 156.92871839 77.16772461 153.11010742 C72.37596897 150.20032239 67.50736032 147.45311842 62.61108398 144.7253418 C55.3029192 140.63887783 48.08769468 136.39496208 40.86352539 132.16235352 C35.82395605 129.21445494 30.77885957 126.28428768 25.66992188 123.45800781 C23.81210089 122.42374833 21.97278767 121.35636317 20.13757324 120.28250122 C17.42224411 118.72743648 14.71953355 117.44008929 11.82250977 116.26235962 C7.23299089 114.20990654 3.14660144 112.01328241 0 108 C-2.87295124 100.27520093 -1.85720829 91.48153282 -1.5625 83.3984375 C-1.53262842 80.99141991 -1.50986694 78.5843045 -1.49389648 76.17715454 C-1.43302662 69.86488542 -1.27609006 63.55858132 -1.09863281 57.24865723 C-0.93445219 50.80070708 -0.86177718 44.35178507 -0.78125 37.90234375 C-0.61005318 25.26569531 -0.34038668 12.63316591 0 0 Z " transform="translate(230,16)" style="paint-order: fill;"/>
</svg>